<svg width="547" height="331" viewBox="0 0 547 331" fill="none" xmlns="http://www.w3.org/2000/svg">
<path d="M0 302L547 302" stroke="#9E949C"/>
<path d="M0 295L547 295" stroke="#9E949C"/>
<path d="M0 309L547 309" stroke="#9E949C"/>
<path d="M0 316L547 316" stroke="#9E949C"/>
<path d="M0 323L547 323" stroke="#9E949C"/>
<path d="M0 330L547 330" stroke="#9E949C"/>
<path d="M0 260L547 260" stroke="#9E949C"/>
<path d="M0 253L547 253" stroke="#9E949C"/>
<path d="M0 267L547 267" stroke="#9E949C"/>
<path d="M0 274L547 274" stroke="#9E949C"/>
<path d="M0 281L547 281" stroke="#9E949C"/>
<path d="M0 288L547 288" stroke="#9E949C"/>
<path d="M0 218L547 218" stroke="#9E949C"/>
<path d="M0 211L547 211" stroke="#9E949C"/>
<path d="M0 225L547 225" stroke="#9E949C"/>
<path d="M0 232L547 232" stroke="#9E949C"/>
<path d="M0 239L547 239" stroke="#9E949C"/>
<path d="M0 246L547 246" stroke="#9E949C"/>
<path d="M0 176L547 176" stroke="#9E949C"/>
<path d="M0 169L547 169" stroke="#9E949C"/>
<path d="M0 183L547 183" stroke="#9E949C"/>
<path d="M0 190L547 190" stroke="#9E949C"/>
<path d="M0 197L547 197" stroke="#9E949C"/>
<path d="M0 204L547 204" stroke="#9E949C"/>
<path d="M0 134L547 134" stroke="#9E949C"/>
<path d="M0 127L547 127" stroke="#9E949C"/>
<path d="M0 141L547 141" stroke="#9E949C"/>
<path d="M0 148L547 148" stroke="#9E949C"/>
<path d="M0 155L547 155" stroke="#9E949C"/>
<path d="M0 162L547 162" stroke="#9E949C"/>
<path d="M0 92L547 92" stroke="#9E949C"/>
<path d="M0 85L547 85" stroke="#9E949C"/>
<path d="M0 99L547 99" stroke="#9E949C"/>
<path d="M0 106L547 106" stroke="#9E949C"/>
<path d="M0 113L547 113" stroke="#9E949C"/>
<path d="M0 120L547 120" stroke="#9E949C"/>
<path d="M0 50L547 50" stroke="#9E949C"/>
<path d="M0 43L547 43" stroke="#9E949C"/>
<path d="M0 57L547 57" stroke="#9E949C"/>
<path d="M0 64L547 64" stroke="#9E949C"/>
<path d="M0 71L547 71" stroke="#9E949C"/>
<path d="M0 78L547 78" stroke="#9E949C"/>
<path d="M0 8.00003L547 8.00003" stroke="#9E949C"/>
<path d="M0 1.00003L547 1.00003" stroke="#9E949C"/>
<path d="M0 15L547 15" stroke="#9E949C"/>
<path d="M0 22L547 22" stroke="#9E949C"/>
<path d="M0 29L547 29" stroke="#9E949C"/>
<path d="M0 36L547 36" stroke="#9E949C"/>
</svg>
