<svg width="16" height="16" viewBox="0 0 16 16" fill="none" xmlns="http://www.w3.org/2000/svg">
<path d="M8.34193 14.2309L5.04529 0H4.61529L1.34732 14.2309C1.07499 15.3779 0.831326 15.5917 0 15.5917V16H2.93831V15.5917C1.56232 15.5917 1.59099 15.3584 1.84898 14.2309L2.59431 10.9648H6.57894L7.3386 14.2309C7.5966 15.3584 7.62527 15.5917 6.26361 15.5917V16H9.68925V15.5917C8.85792 15.5917 8.61426 15.3779 8.34193 14.2309ZM2.73764 10.3038L4.55796 2.35237H4.60096L6.43561 10.3038H2.73764Z" fill="#9E949C"/>
<path d="M7.58641 2.31349V14.1337C7.58641 15.3196 7.47174 15.5917 6.09576 15.5917V16H9.96572V15.5917C8.58973 15.5917 8.47507 15.3196 8.47507 14.1337V2.31349C8.47507 1.12758 8.58973 0.855407 9.96572 0.855407V0.447145H6.09576V0.855407C7.47174 0.855407 7.58641 1.12758 7.58641 2.31349ZM14.194 14.5614L9.93705 7.46537L13.2767 1.88578C13.8357 0.952612 14.237 0.855407 15.0683 0.855407V0.447145H12.2017V0.855407C13.3627 0.855407 13.205 0.952612 12.646 1.88578L8.99106 7.9514L13.033 14.5614C13.592 15.4945 13.764 15.5917 12.6174 15.5917V16H16V15.5917C15.1687 15.5917 14.753 15.4945 14.194 14.5614Z" fill="#9E949C"/>
</svg>
