<svg width="12" height="12" viewBox="0 0 12 12" fill="none" xmlns="http://www.w3.org/2000/svg">
<path fill-rule="evenodd" clip-rule="evenodd" d="M5.81538 0.378662C4.43458 0.378203 3.09869 0.869792 2.0469 1.76542C0.995112 2.66104 0.296099 3.90221 0.0750139 5.26672C-0.146071 6.63123 0.125208 8.02996 0.840283 9.2125C1.55536 10.395 2.66753 11.2842 3.97768 11.7207C4.26648 11.7746 4.3743 11.5944 4.3743 11.4412C4.3743 11.3024 4.36948 10.8437 4.36659 10.357C2.74934 10.7097 2.40857 9.67084 2.40857 9.67084C2.14384 8.99624 1.76263 8.81891 1.76263 8.81891C1.2351 8.45752 1.80306 8.46523 1.80306 8.46523C2.38643 8.50667 2.69351 9.06466 2.69351 9.06466C3.21238 9.95514 4.05373 9.69783 4.38585 9.54652C4.43783 9.17067 4.588 8.91432 4.75454 8.7688C3.46363 8.62135 2.10629 8.12215 2.10629 5.8921C2.09764 5.31392 2.31212 4.75469 2.70506 4.33087C2.64442 4.18343 2.44515 3.5917 2.7609 2.78892C2.7609 2.78892 3.24896 2.6328 4.35986 3.38547C5.31304 3.12461 6.31868 3.12461 7.27187 3.38547C8.38084 2.6328 8.8689 2.78892 8.8689 2.78892C9.18465 3.59074 8.98635 4.18246 8.9257 4.33087C9.31829 4.75484 9.53242 5.31405 9.52351 5.8921C9.52351 8.12793 8.16424 8.62039 6.86948 8.76398C7.07838 8.9442 7.26417 9.29885 7.26417 9.84142C7.26417 10.6201 7.25743 11.2475 7.25743 11.4393C7.25743 11.5935 7.3614 11.7756 7.65597 11.7178C8.96422 11.2796 10.0742 10.39 10.7875 9.20787C11.5008 8.02577 11.771 6.62824 11.5497 5.26506C11.3284 3.90188 10.6302 2.6619 9.57965 1.76674C8.52915 0.871576 7.1949 0.379572 5.81538 0.378662Z" fill="#F5EFF3"/>
<path d="M2.2029 8.73401C2.19038 8.76385 2.14514 8.77155 2.10663 8.7523C2.06813 8.73305 2.04021 8.69358 2.05465 8.6647C2.06909 8.63582 2.11241 8.62715 2.15091 8.64641C2.18942 8.66566 2.21637 8.70513 2.20193 8.73401H2.2029Z" fill="#F5EFF3"/>
<path d="M2.43899 8.99694C2.41107 9.02293 2.35717 9.01138 2.32058 8.96999C2.30289 8.95593 2.29124 8.93564 2.28801 8.91326C2.28479 8.89089 2.29025 8.86814 2.30326 8.84966C2.33214 8.82366 2.38412 8.83618 2.42263 8.87661C2.46113 8.91704 2.46787 8.97288 2.43899 8.99694Z" fill="#F5EFF3"/>
<path d="M2.66865 9.33231C2.63303 9.35733 2.57238 9.33231 2.53869 9.28225C2.505 9.23219 2.50307 9.16866 2.53869 9.14363C2.57431 9.1186 2.63496 9.14363 2.66865 9.19272C2.70234 9.24182 2.70427 9.30728 2.66865 9.33231Z" fill="#F5EFF3"/>
<path d="M2.98222 9.65628C2.95045 9.6919 2.88596 9.68227 2.83301 9.63414C2.78007 9.58601 2.76852 9.52055 2.80028 9.48589C2.83205 9.45123 2.89655 9.4599 2.95046 9.50803C3.00436 9.55616 3.01591 9.62162 2.98222 9.65628Z" fill="#F5EFF3"/>
<path d="M3.41569 9.84431C3.40221 9.88956 3.33675 9.91074 3.27033 9.89149C3.20391 9.87223 3.16155 9.81832 3.17406 9.77212C3.18658 9.72591 3.25396 9.70473 3.31942 9.72495C3.38488 9.74516 3.4282 9.79811 3.41569 9.84431Z" fill="#F5EFF3"/>
<path d="M3.89143 9.87812C3.89143 9.92625 3.83752 9.96572 3.76821 9.96668C3.6989 9.96764 3.64306 9.9301 3.6421 9.88293C3.64114 9.83576 3.69697 9.79533 3.76628 9.7934C3.8356 9.79148 3.89143 9.83095 3.89143 9.87812Z" fill="#F5EFF3"/>
<path d="M4.33337 9.80381C4.34203 9.85098 4.2939 9.90007 4.22555 9.91163C4.1572 9.92318 4.09559 9.89526 4.08693 9.84809C4.07827 9.80092 4.12736 9.75183 4.19475 9.74027C4.26213 9.72872 4.3247 9.75664 4.33337 9.80381Z" fill="#F5EFF3"/>
</svg>
