<svg width="12" height="12" viewBox="0 0 12 12" fill="none" xmlns="http://www.w3.org/2000/svg">
<path fill-rule="evenodd" clip-rule="evenodd" d="M0.813353 0C0.364185 0 0 0.35363 0 0.789136V10.2278C0 10.6633 0.364185 11.0166 0.813353 11.0166H10.191C10.6403 11.0166 11.0044 10.6633 11.0044 10.2277V0.789136C11.0044 0.35363 10.6403 0 10.191 0H0.813353ZM3.33542 4.24757V9.22219H1.67325V4.24757H3.33542ZM3.445 2.70907C3.445 3.18652 3.08416 3.56844 2.50467 3.56844H2.4938C1.93589 3.56844 1.57522 3.18652 1.57522 2.70907C1.57522 2.22098 1.94727 1.84954 2.51571 1.84954C3.08416 1.84954 3.43413 2.22098 3.445 2.70907ZM4.25585 9.22219H4.25534L4.25584 9.22236C4.25584 9.22236 4.25585 9.22231 4.25585 9.22219ZM5.91785 4.95198C6.13884 4.61372 6.5343 4.13092 7.41592 4.13092C8.50964 4.13092 9.32936 4.84201 9.32936 6.36985V9.22219H7.66735V6.56123C7.66735 5.89241 7.42662 5.43627 6.82539 5.43627C6.36585 5.43627 6.09233 5.7438 5.97222 6.04102C5.92839 6.14719 5.91735 6.29597 5.91735 6.44441V9.22219H4.25585C4.256 9.1907 4.27752 4.71206 4.25584 4.24774H5.91785V4.95198Z" fill="#F5EFF3"/>
</svg>
