<svg width="52" height="38" viewBox="0 0 52 38" fill="none" xmlns="http://www.w3.org/2000/svg">
<path d="M27.1113 33.7983L16.3972 0H14.9997L4.37879 33.7983C3.49372 36.5225 2.70181 37.0304 0 37.0304V38H9.5495V37.0304C5.07754 37.0304 5.1707 36.4763 6.0092 33.7983L8.43151 26.0413H21.3816L23.8505 33.7983C24.6889 36.4763 24.7821 37.0304 20.3567 37.0304V38H31.4901V37.0304C28.7882 37.0304 27.9963 36.5225 27.1113 33.7983ZM8.89734 24.4714L14.8134 5.58688H14.9531L20.9157 24.4714H8.89734Z" fill="#9E949C"/>
<path d="M24.6558 5.49453V33.5674C24.6558 36.384 24.2832 37.0304 19.8112 37.0304V38H32.3886V37.0304C27.9166 37.0304 27.544 36.384 27.544 33.5674V5.49453C27.544 2.67801 27.9166 2.03159 32.3886 2.03159V1.06197H19.8112V2.03159C24.2832 2.03159 24.6558 2.67801 24.6558 5.49453ZM46.1306 34.5832L32.2954 17.7303L43.1493 4.47874C44.966 2.26245 46.2703 2.03159 48.9721 2.03159V1.06197H39.6555V2.03159C43.4287 2.03159 42.9163 2.26245 41.0996 4.47874L29.221 18.8846L42.3573 34.5832C44.1741 36.7995 44.7331 37.0304 41.0064 37.0304V38H52V37.0304C49.2982 37.0304 47.9473 36.7995 46.1306 34.5832Z" fill="#9E949C"/>
</svg>
